<svg xmlns="http://www.w3.org/2000/svg" width="200.948" height="62.639" viewBox="0 0 200.948 62.639"><g transform="translate(-195.842 -80.638)"><g transform="translate(195.842 80.638)"><path d="M53.845,10.369c2.422-4.217,11.869-8.236,18.2-4.741,5.249,2.9,9.392,7.971,8.684,16.361,8.36-.621,16.028.091,15.689,9.225-.261,7-6.058,11.221-11.231,13.237l-.742,12.829a78.082,78.082,0,0,1,3.219-9.552c4.143-2.4,6.138-1.885,9.827-5.7,6.647-6.867,7.592-14.693.889-21.444-3.466-3.492-5.294-3.42-10.994-4.285-.706-11.71-15.3-19.36-28.2-15.167-7.082,2.3-2.9,3.6-7.382,1.471-2.978-1.412-6.547-.794-9.483.24-6.486,2.284-8.094,5.35-11.4,10.831-5.451.477-8.5,2.305-10.421,5.594-6.371,10.918-4.3,25.142,12.83,28.637l3.788,14.7c29.071-4.791,20.191-2.317,45.66-1.632-16.555-5.589-24.433-3.477-41.891-3.008L38.682,47.87c6.378-2.606,10.071-4.343,18.079-5.252,8.062-.916,14.355.289,21.7-.026-4.668-3.05-16.082-3.043-22.25-2.614-7.263.506-14.653,3.136-20.7,3.492-15.426.907-17.64-25.87-2-24.358,1.451-1.809,2.266-6.743,7.515-9.758C47.5,5.635,51.056,9.2,53.846,10.368ZM42.709,40.126c2.137-.417,2.011-.221,3.1-1.237-2.939-3.352-4.931-6.092-8.974-8.445,1.375,3.55,4.4,6.363,5.877,9.682Zm10.419-2.283,2.637-.171c-.718-4.3-4.664-13.787-7.2-15.639.494,2.6,3.483,14.123,4.561,15.811Zm11.31-.158,2.629.212c1.225-1.844,4.132-13.135,4.589-15.889-2.493,2.035-6.388,11.279-7.218,15.678Zm9.985,1.275c1.059.893,1.448.842,3.082,1.163,1.711-3.59,4.591-6.284,6.186-10.1-1.366.745-.078-.15-1.376.966A47.893,47.893,0,0,0,74.423,38.96Z" transform="translate(-17.193 0.024)" fill="#f60"></path></g><g transform="translate(290.28 82.114)"><path d="M93.543,66.469q0-4.112-.091-8.408a50.63,50.63,0,0,0,6.672-.046q-.046.5-.091,1.142-.046.549-.068,1.279t-.023,1.6a8.137,8.137,0,0,1,2.764-3.313,7.205,7.205,0,0,1,1.873-.937,6.271,6.271,0,0,1,1.942-.32q-.091.732-.137,1.873-.091,1.006-.114,2.536t-.068,3.816a4.889,4.889,0,0,0-3.564,1.9,7.826,7.826,0,0,0-1.051,4c-.177,5.5.043,11.1.043,16.614H93.543V66.468ZM20.3,66.743q0-1.828-.914-1.828a.823.823,0,0,0-.822.571,4.06,4.06,0,0,0-.229,1.485c-.084,4.261-.1,8.625,0,12.885-2.743,0-5.484.046-8.224.046.093-4.31.137-8.574.137-12.885a3.731,3.731,0,0,0-.229-1.417.884.884,0,0,0-1.668.091,5.11,5.11,0,0,0-.207,1.553c-.093,4.3.046,8.628.138,12.93H.147c0-4.365,0-8.726-.046-13.09q-.046-4-.091-8.842c2.088.116,4.493.113,6.58.046-.03.3-.046.64-.046,1.005,0,.335-.007.716-.023,1.142s-.023.884-.023,1.371A8.37,8.37,0,0,1,8.943,59a5.912,5.912,0,0,1,3.587-1.119A4.594,4.594,0,0,1,15.843,59a6,6,0,0,1,1.622,2.673,6.551,6.551,0,0,1,2.262-2.6,6.335,6.335,0,0,1,3.633-1.005,4.229,4.229,0,0,1,3.77,1.713,8.637,8.637,0,0,1,1.256,4.638q.045,3.016.068,6.054c.081,10.765.023,21.547.023,32.31H20.4c0-11.976.115-24.049-.1-36.034Zm9.924-10.7h7.988v-7H30.221Zm.129,24.864c0-7.7-.026-15.378-.137-23.075,2.666,0,5.33.014,8-.046,0,7.7.058,15.375.183,23.075-2.682,0-5.363.046-8.042.046Zm18.277.732a13.174,13.174,0,0,1-3.861-.525,7.413,7.413,0,0,1-2.9-1.623,6.931,6.931,0,0,1-1.8-2.833,11.964,11.964,0,0,1-.571-4.2q.778,0,1.919.046l5.758.274a6.824,6.824,0,0,0,.229,2.284,1.164,1.164,0,0,0,1.233.822,1.1,1.1,0,0,0,.8-.343,1.539,1.539,0,0,0,.343-1.119,1.709,1.709,0,0,0-.64-1.3,8.093,8.093,0,0,0-2.7-1.211A10.916,10.916,0,0,1,41.2,69.1a6.561,6.561,0,0,1-1.485-4.455,6.707,6.707,0,0,1,.594-2.811,6.519,6.519,0,0,1,1.713-2.262,8.156,8.156,0,0,1,2.765-1.508,11.978,11.978,0,0,1,3.792-.548q4.34,0,6.511,2.513a9.5,9.5,0,0,1,2.033,6.763q-.913-.046-2.1-.091-1.006-.046-2.33-.068T49.815,66.6a5.869,5.869,0,0,0-.206-2.262A1.116,1.116,0,0,0,48.49,63.5a1.13,1.13,0,0,0-.982.411,1.518,1.518,0,0,0-.3.914,1.97,1.97,0,0,0,.731,1.485,6.368,6.368,0,0,0,2.376,1.165,19.923,19.923,0,0,1,3.244,1.279,8.7,8.7,0,0,1,2.171,1.531,5.006,5.006,0,0,1,1.211,1.873,6.843,6.843,0,0,1,.366,2.307,7.081,7.081,0,0,1-.708,3.29,6.311,6.311,0,0,1-1.9,2.239,7.784,7.784,0,0,1-2.764,1.257,13.834,13.834,0,0,1-3.313.388Zm9.23-15.9c0-2.315-.091-4.638-.091-6.946q.595.046,1.142.046h1.051c0-1.981-.024-4.151.091-6.122,2.494.052,5.375.166,7.86,0-.112,2.007-.091,4.2-.091,6.214h3.518c-.047,2.284-.046,4.569-.046,6.854l-3.518-.046q0,1.416.023,2.787t.068,2.65a1.865,1.865,0,0,0,2.148,2.01,7.81,7.81,0,0,0,1.325-.137c.1,2.457.267,4.864.411,7.311q-1.187.274-2.307.434a14.933,14.933,0,0,1-2.125.16A10.472,10.472,0,0,1,64.3,80.54a5.586,5.586,0,0,1-3.816-3.61,9.9,9.9,0,0,1-.525-3.427q-.045-2.056-.046-3.952V65.736H57.856ZM82.33,81.416a10.765,10.765,0,0,1-4.775-.937,7.76,7.76,0,0,1-3.016-2.559A10.34,10.34,0,0,1,72.963,74.1a22.813,22.813,0,0,1-.457-4.66,18.669,18.669,0,0,1,.525-4.5,10.533,10.533,0,0,1,1.691-3.724,8.05,8.05,0,0,1,3.038-2.513,10.226,10.226,0,0,1,4.523-.915,10.1,10.1,0,0,1,4.889,1.052,7.778,7.778,0,0,1,3.016,2.9,11.489,11.489,0,0,1,1.439,4.341,27.307,27.307,0,0,1,.16,5.414c-3.66,0-7.306.024-10.967.091a10.994,10.994,0,0,0,.457,3.244q.365.915,1.1.914a1.016,1.016,0,0,0,.891-.571,4.857,4.857,0,0,0,.434-2.033c2.711,0,5.512.1,8.225.183a8.785,8.785,0,0,1-3.084,6.009,10.052,10.052,0,0,1-6.512,2.079Zm-.091-18.368q-.686,0-1.005.914a14.786,14.786,0,0,0-.411,3.655H82.17q.617,0,1.3-.046a12.427,12.427,0,0,0-.274-3.427q-.319-1.1-.96-1.1Z" transform="translate(-0.01 -49.047)" fill="#f60"></path><path d="M736.037,1851.909v.708h-4.752a6.079,6.079,0,0,1,.3-2.626,1.709,1.709,0,0,1,2.017-.508,1.287,1.287,0,0,1,.159.046,1.647,1.647,0,0,0,.562.146c.417,0,.392-.864.4-1.292l-.022-.535c-.04-.363-.037-.886-.484-1.042-.1-.034-.177-.064-.279-.1s-.2-.056-.3-.081-.193-.047-.3-.076-.209-.04-.317-.06-.239-.032-.338-.04a6.514,6.514,0,0,0-2.2.191,4.03,4.03,0,0,0-1.17.561c-.055.043-.1.08-.159.125s-.093.083-.15.134a3.172,3.172,0,0,0-.64.791c-.039.064-.075.123-.109.19a6.764,6.764,0,0,0-.624,2.822v1.353H726.11c-.347,0-.486.177-.558.481a4.606,4.606,0,0,0-.088,1.061c0,.576.037,1.448.583,1.448h1.589V1866.1a.355.355,0,0,0,.18.291,4.911,4.911,0,0,0,2.007.228,4.414,4.414,0,0,0,.924-.1c.253-.053.539-.175.539-.484v-10.431h4.752v10.337c0,.344.159.485.488.566a7.877,7.877,0,0,0,2.639.013.913.913,0,0,0,.361-.143.46.46,0,0,0,.177-.326v-10.446h2.281c.557,0,.608-.819.613-1.26,0-.093.017-.141.017-.251s-.016-.157-.017-.252c0-.356-.037-1.043-.415-1.19a.781.781,0,0,0-.246-.037H739.7a9.967,9.967,0,0,1,.153-2.49c.02-.056.035-.105.058-.163s.049-.1.077-.158a.791.791,0,0,1,.086-.134c.463-.684,1.639-.548,2.3-.3.363.137.6.145.691-.31a3.908,3.908,0,0,0,.062-.617v-.569a3.923,3.923,0,0,0-.108-.878.656.656,0,0,0-.2-.307,4.809,4.809,0,0,0-2.055-.462h-.033a5.917,5.917,0,0,0-1.994.253,3.434,3.434,0,0,0-.452.178l-.041.021-.156.08a4.01,4.01,0,0,0-1.874,2.83,10.955,10.955,0,0,0-.185,2.316Zm-47.757,7.615v.035a12.964,12.964,0,0,0,.12,2.017c.01.068.011.105.023.165.121.584.119.583.269,1.13.027.1.065.192.1.294a5.979,5.979,0,0,0,.99,1.779l.687.681c.041.033.07.056.115.09a5.64,5.64,0,0,0,2.515,1.041,7.41,7.41,0,0,0,1.449.1h.073a6.86,6.86,0,0,0,2.193-.388,5.044,5.044,0,0,0,.906-.384,3.68,3.68,0,0,0,.767-.522c.408-.406.351-1.195.351-1.759,0-.278-.006-1.227-.27-1.4-.216-.141-.433-.007-.6.119a7.39,7.39,0,0,1-1.075.75,4.431,4.431,0,0,1-.836.375,3.424,3.424,0,0,1-2.466-.168,2.854,2.854,0,0,1-1.288-1.733c-.038-.121-.057-.223-.094-.347-.032-.107-.05-.244-.072-.353a8.592,8.592,0,0,1,.25-3.932,3.856,3.856,0,0,1,.441-.834c.023-.033.062-.08.09-.113a2.193,2.193,0,0,1,.435-.416,2.686,2.686,0,0,1,1.724-.478,4.479,4.479,0,0,1,2.639,1.09c.912.682,1.059-.427,1.059-1.09a6.635,6.635,0,0,0-.061-1.2,1.083,1.083,0,0,0-.451-.729,4.631,4.631,0,0,0-1.283-.668,5.8,5.8,0,0,0-.755-.221,7.121,7.121,0,0,0-1.7-.159,5.4,5.4,0,0,0-.776.058c-.253.038-.5.072-.722.127-.115.029-.212.057-.324.085a5.573,5.573,0,0,0-2.084,1.078,5.186,5.186,0,0,0-.737.742c-.063.079-.118.146-.18.229a5.132,5.132,0,0,0-.489.785,9.585,9.585,0,0,0-.495,1.189,6.635,6.635,0,0,0-.254,1c-.02.116-.046.234-.06.365l-.089.745c-.024.186-.036.584-.036.8v.01ZM700,1846.954v19.131c0,.642,1.8.535,2.234.535.335,0,1.349-.034,1.414-.505.02-.146,0-7.1,0-7.708,0-.127-.014-.9.008-.952l.444-.532c.113-.118.362-.4.474-.486a5.039,5.039,0,0,1,.88-.661,2.169,2.169,0,0,1,1.769-.19.781.781,0,0,1,.1.031,1.763,1.763,0,0,1,.773.6l.177.279a3.051,3.051,0,0,1,.335,1.048,5,5,0,0,1,.063.852c0,.1.015.128.017.219v2.077c0,.376-.025,5.372.017,5.49.079.218.3.3.556.357a9.037,9.037,0,0,0,2.344.029c.319-.049.733-.154.733-.526v-8.023a10.437,10.437,0,0,0-.24-2.309c-.018-.084-.042-.159-.065-.25l-.075-.24c-.058-.155-.109-.313-.181-.464a4.189,4.189,0,0,0-.83-1.231.132.132,0,0,0-.015-.016.265.265,0,0,0-.024-.023c-.019-.016-.022-.016-.044-.035a3.584,3.584,0,0,0-.531-.429,4.281,4.281,0,0,0-1.9-.669,5.034,5.034,0,0,0-2.718.336,6.728,6.728,0,0,0-1.88,1.266,2.038,2.038,0,0,1-.186.177c0-2.35-.013-4.733,0-7.079a.4.4,0,0,0-.041-.242c-.254-.466-1.432-.435-1.925-.435a3.536,3.536,0,0,0-1.457.243.434.434,0,0,0-.227.339Zm22.265,11.218h-5.4a4.672,4.672,0,0,1,.208-1.272,2.924,2.924,0,0,1,.206-.533,2.694,2.694,0,0,1,.444-.672.64.64,0,0,1,.09-.1,2.576,2.576,0,0,1,1.073-.61,3.609,3.609,0,0,1,.663-.093,3.5,3.5,0,0,1,.992.108c1.371.393,1.768,1.684,1.768,3.125,0,.036-.011.047-.046.047Zm-2.009,8.684h-.72c-.068,0-.086-.015-.165-.016a7.56,7.56,0,0,1-1.143-.116,6.846,6.846,0,0,1-1.337-.346c-.214-.083-.4-.155-.6-.253a4.727,4.727,0,0,1-1.254-.854c-.037-.037-.07-.062-.108-.1l-.033-.03a3.824,3.824,0,0,1-.269-.3,6.057,6.057,0,0,1-1.261-2.751c-.014-.065-.017-.109-.03-.175l-.108-.726c-.011-.112-.034-.262-.044-.38l-.033-1.384.016-.409a5.7,5.7,0,0,1,.068-.782c.029-.241.083-.486.123-.726a7.3,7.3,0,0,1,.576-1.754,6.5,6.5,0,0,1,1.1-1.625,2.532,2.532,0,0,1,.212-.213l.116-.1a5.821,5.821,0,0,1,2.321-1.25l.678-.155a8.808,8.808,0,0,1,3.076.042,4.749,4.749,0,0,1,.918.263c.054.023.1.036.146.058a5.667,5.667,0,0,1,1.138.625,5.248,5.248,0,0,1,.809.747,5.356,5.356,0,0,1,.764,1.2l.119.276c.075.2.135.37.2.589a7.6,7.6,0,0,1,.308,2.052,3.737,3.737,0,0,1-.191,1.807.994.994,0,0,1-.8.443h-7.977a5.385,5.385,0,0,0,.226,1.584,2.712,2.712,0,0,0,.51.953,2.775,2.775,0,0,0,.551.488,2.891,2.891,0,0,0,.552.282,3.253,3.253,0,0,0,.319.1c.062.015.1.029.162.044s.122.024.17.034a8.285,8.285,0,0,0,2.552-.02c.339-.055.667-.135.98-.216l.236-.062a9.737,9.737,0,0,0,1.11-.384c.334-.13.783-.254.916.2a5.644,5.644,0,0,1-.012,1.911c-.112.417-.483.563-.853.7l-.495.166c-.111.035-.217.068-.342.1-.475.118-.977.225-1.47.308a11.5,11.5,0,0,1-1.726.142Z" transform="translate(-654.671 -1809.244)" fill="#008b00" fill-rule="evenodd"></path></g></g></svg>